<svg version="1.1" id="Ebene_1" xmlns="http://www.w3.org/2000/svg" xmlns:xlink="http://www.w3.org/1999/xlink" x="0px" y="0px"
	 width="60px" height="60px" viewBox="0 0 60 60" enable-background="new 0 0 60 60" xml:space="preserve">
<path id="eb38d19b-c32a-4918-8757-3687a2befe4f" fill="#FFFFFF" d="M36.473,8.879c-0.529,0.072-1.025,0.294-1.433,0.639
	c-0.69,0.576-1.72,2.705-2.813,4.144s-1.957,1.951-3.223,1.432c-1.266-0.518-3.805-3.619-5.244-4.425
	c-1.439-0.806-3.121,0.748-3.351,1.151c-0.23,0.403-0.333,13.525-0.563,13.813c-0.23,0.288-2.833,2.577-2.891,2.865
	c0.321,1.36,0.766,2.687,1.33,3.964c0.403,0.864,4.328,9.102,13.48,6.855c9.152-2.244,11.281-16.115,11.281-16.115
	s-3.645-1.1-3.99-2.021c-0.346-0.921-0.269-10.187-1.074-11.511C37.69,9.122,37.092,8.807,36.473,8.879L36.473,8.879z
	 M34.912,12.051c-0.592,9.178-6.382,8.34-8.901,1.893c0,0,3.058,2.753,5.065,2.635C33.033,16.463,34.912,12.051,34.912,12.051
	L34.912,12.051z M40.176,35.707c0.027,3.406-0.185,6.811-0.633,10.188c-1.43,6.749-14.917,7.14-16.825,0.184
	c-0.566-1.774-0.915-3.61-1.036-5.468c-0.067-0.736-0.183-1.467-0.346-2.188C26.254,45.658,36.104,42.63,40.176,35.707z"/>
</svg>
