<svg version="1.1" id="Ebene_1" xmlns="http://www.w3.org/2000/svg" xmlns:xlink="http://www.w3.org/1999/xlink" x="0px" y="0px"
	 width="60px" height="60px" viewBox="0 0 60 60" enable-background="new 0 0 60 60" xml:space="preserve">
<path opacity="0.5" fill="#FFFFFF" enable-background="new    " d="M57.267,12.596v-0.209c-1.962,0.469-6.247,4.269-7.267,7.39
	c-0.209,1.077-1.23,1.796-2.314,1.632c-1.086,0.018-2.096-0.561-2.63-1.507c-0.562-0.995-3.196-4.702-3.37-4.909
	c-0.297-0.314-0.637-0.586-1.01-0.806c-0.398-0.241-0.851-0.377-1.314-0.394c-1.173,0.012-2.014,1.235-4.076,3.154
	c-1.48,1.348-6.151,1.974-5.39,2.105c2.2,1.149,7.231-1.184,7.231-1.184s-3.111,1.854-2.105,2.366
	c1.042,0.317,2.117,0.509,3.204,0.574c0.034,0.185-0.076,0.366-0.256,0.42c-1.31,0.361-5.19,0.663-7.487-0.314
	c-0.298-0.154-0.567-0.359-0.796-0.604c-1.092-0.873-4.733-6.37-6.786-6.328c-2.053,0.042-6.654,4.316-7.601,7.609
	c-0.354,0.149-0.732,0.231-1.117,0.241c-0.708,0.037-1.415-0.085-2.069-0.356c-0.272-0.333-0.475-0.717-0.593-1.131
	c-0.022-0.062-0.033-0.121-0.057-0.184c-1.12-3.246-5.792-7.217-7.525-7.297c-0.474,0.061-0.917,0.265-1.272,0.583
	c0,0-0.004,33.87,0,33.979c0.004,0.068,0.028,0.133,0.068,0.188c2.283-0.982,6.786-3.021,6.786-3.021
	c0.101-0.311,0.101-0.645,0-0.955c-0.24-0.559-0.24-1.19,0-1.749c0.677-2.948,1.156-5.938,1.431-8.952
	c0.146,0.063,0.309,0.07,0.46,0.024c0.452-0.15,0.316-1.283,1.501-1.51c0.597-0.089,1.204-0.107,1.805-0.054
	c1,0.088,1.05,1.361,1.501,1.514c0.313,0.126,0.672,0.017,0.862-0.264c0.095-0.214,0.178-0.434,0.248-0.658
	c3.908,8.092,8.01,9.871,12.178,9.302c8.716,1.147,12.775-2.722,14.882-8.801c0.162,0.082,0.35,0.099,0.524,0.047
	c0.451-0.15,0.545-1.401,1.5-1.511c0.6-0.073,1.203-0.092,1.806-0.053c0.989,0.038,1.05,1.361,1.501,1.514
	c0.354,0.105,0.734-0.053,0.908-0.379c0.273,3.032,0.755,6.043,1.441,9.01c0.229,0.561,0.229,1.189,0,1.75
	c-0.027,0.094-0.192,0.932,0.068,1.088c1.91,0.628,3.628,1.171,5.195,1.59V12.574C57.313,12.579,57.288,12.59,57.267,12.596z"/>
<path fill="#FFFFFF" d="M29.937,24.97c-1.331-1.33-4.438-4.807-6.876-4.88c-2.443-0.075-8.46,4.075-6.39,10.287
	c2.072,6.213,4.24,8.205,7.347,10.202c3.104,1.997,4.624,0.874,5.69,1.146c0.89,0.227,7.326,0.834,11.034-2.779
	c3.866-3.77,5.022-10.425,4.502-13.751c-0.518-3.328-3.031-4.807-4.065-4.66C37.531,21.908,34.543,28.738,29.937,24.97"/>
</svg>
