<svg version="1.1" id="Ebene_1" xmlns="http://www.w3.org/2000/svg" xmlns:xlink="http://www.w3.org/1999/xlink" x="0px" y="0px"
	 width="60px" height="60px" viewBox="0 0 60 60" enable-background="new 0 0 60 60" xml:space="preserve">
<path id="ccb0aeff-846f-4485-a422-32dd8f61d9ec" opacity="0.5" fill="#FFFFFF" enable-background="new    " d="M30.558,9.024
	c-2.897,0.132-5.802,0.935-7.162,0.935c-2.175,0-6.408-0.263-7.713,0.607s-1.319,7.055-1.667,8.708
	c-0.348,1.653-0.671,15.14,2.375,20.708c1.989,3.68,4.645,6.959,7.833,9.666c1.817,1.727,6.571,2.027,9.292,1.125
	c2.463-0.814,7.145-1.812,10.625-9.207c3.48-7.396,1.917-27.25,1.917-27.25s0.144-2.411-3.25-3.542
	c-3.394-1.131-2.964,0.195-7.458-1.333C33.789,9.021,32.167,8.88,30.558,9.024z M38.141,16.857c0.966-0.161,1.957,0.032,2.792,0.542
	c1.608,1.33,2,4.667,2,4.667l-2.5,0.292c-0.02-0.799-0.118-1.595-0.292-2.375c-0.234-0.701-1.301-1.189-2.666-1.125
	s-6.771,0.693-7.75,0.833c-0.979,0.14-5.237-0.073-6.917,0.417s-3.375,3-3.375,3s-1.516-0.192-3.125-0.542
	c-0.069-0.004-0.139-0.004-0.208,0c-0.593,0.143-1.101,0.221-1.292,0.292c-0.12,0.087-0.231,0.185-0.333,0.292
	c-0.176,0.19-0.33,0.4-0.458,0.625c0.136-0.22,0.29-0.429,0.458-0.625c0.084-0.098,0.145-0.218,0.208-0.25
	c0.013-0.005,0.105-0.035,0.125-0.042c0.38-0.251,0.84-0.355,1.292-0.292c0.614-0.118,1.215-0.299,1.792-0.542
	c0.42-0.28,2.458-3.229,4.417-4.208c1.958-0.979,6.157-0.208,9.375-0.208C33.694,17.607,36.174,16.984,38.141,16.857L38.141,16.857z
	"/>
<path id="_x36_f76f8b9-577a-4682-ab80-359fb3b7c3fc" fill="#FFFFFF" d="M30.933,8.732c-2.12,0.167-4.224,0.501-6.292,1
	c-1.218,0.174-7.437-0.215-9.042,0.833C13.672,11.984,13.8,24.453,13.8,24.453s0.624-1.414,1.216-1.637
	c0.553-0.167,1.131-0.237,1.708-0.208c0.444,0.001,0.879-0.129,1.25-0.375c0.42-0.28,2.416-3.229,4.375-4.208
	c1.958-0.979,6.157-0.208,9.375-0.208c3.219,0,7.641-1.538,9.25-0.208c1.464,1.209,1.615,3.307,1.958,4.458
	s2.411,9.795-1.662,23.946c1.114-1.267,2.052-2.678,2.787-4.196c1.06-2.78,1.786-5.675,2.167-8.625
	c0.261-2.349,0.166-17.046,0.166-17.917c-0.029-1.627-0.874-3.13-2.25-4c-1.74-1.392-4.793-1.125-5.75-1.125
	s-1.654-0.512-4.875-1.208C32.666,8.768,31.799,8.698,30.933,8.732L30.933,8.732z"/>
</svg>
