<svg version="1.1" id="Ebene_1" xmlns="http://www.w3.org/2000/svg" xmlns:xlink="http://www.w3.org/1999/xlink" x="0px" y="0px"
	 width="60px" height="60px" viewBox="0 0 60 60" enable-background="new 0 0 60 60" xml:space="preserve">
<path id="_x36_2b81a91-a757-4e36-892e-015425e9ba07" fill="#FFFFFF" d="M45.164,39.852c-0.193-0.68-0.191-1.4,0.004-2.079
	c0.791-1.786,3.082-12.415,2.381-15.593c-0.867-3.938-6.939-9.189-9.107-9.291s-6.566,6.34-8.193,7.551
	c-3.39,2.069-9.697,0.831-10.456,0.527c-0.759-0.303,3.253-0.303,4.445-0.909c1.193-0.606-2.548-2.828-2.548-2.828
	s5.963,2.727,8.566,1.363c0.904-0.152-4.591-0.879-6.343-2.474c-3.253-3.03-3.903-4.544-6.397-3.231
	c-2.494,1.313-6.16,8.234-6.702,10.354c-0.542,2.121,1.606,10.549,3.341,13.881c1.735,3.333,2.385,2.626,2.277,3.838
	s-0.217,1.212-0.217,1.212C31.486,44.347,27.896,36.141,45.164,39.852L45.164,39.852z M49.272,47.053l-0.507-2.701
	c0,0-4.051-3.545-11.141-2.869c-7.09,0.675-8.947,3.038-13.674,3.713c-3.174,0.313-6.375-0.211-9.285-1.52
	c-0.54,0.621-0.892,1.382-1.013,2.195v1.688L49.272,47.053z"/>
</svg>
