<svg version="1.1" id="Ebene_1" xmlns="http://www.w3.org/2000/svg" xmlns:xlink="http://www.w3.org/1999/xlink" x="0px" y="0px"
	 width="60px" height="60px" viewBox="0 0 60 60" enable-background="new 0 0 60 60" xml:space="preserve">
<g id="_x35_ab67254-f931-4d4e-976e-80f03d6030f8">
	<path id="_x37_7dd4d3f-d89b-4118-b8f1-427d5852ab74" fill="#FFFFFF" d="M40.723,8.773c-2.506-0.116-6.4,8.41-8.279,9.811
		c-3.918,2.391-11.249,0.976-12.125,0.625c-0.877-0.35,5.438,0.442,6.816-0.258c1.378-0.7-2.328-2.778-2.328-2.778
		s5.453,4.337,8.225-0.892c-5.207-1.025-9.561-1.487-14.755,0.72c-5.973,3.746-3.352,15.271-0.762,17.564
		c2.328,1.746,15.419,0.746,16.583-1.291s2.758-11.508,6.25-14.709c1.62-1.521,3.598-2.61,5.75-3.167l1.5-0.75
		C45.156,10.988,42.193,8.842,40.723,8.773L40.723,8.773z"/>
	<path opacity="0.5" fill="#FFFFFF" enable-background="new    " d="M51.191,20.197c-0.336-1.499-1.002-2.02-2.286-3.578
		c-0.85,0.145-4.435,0.22-7.844,4.636c-2.866,3.712-3.411,12.574-5.194,14.075c-3.164,2.66-15.334,3.807-20.328,0.939
		c-2.514-1.443-4.698-13.626-3.243-16.204c2.255-6.748,6.29-7.521,12.454-6.152c-0.311-0.159-0.604-0.351-0.873-0.573
		c-2.82-2.585-3.943-4.208-5.546-4.225c-0.645,0.013-1.275,0.185-1.837,0.501c-2.882,1.494-7.102,9.367-7.729,11.779
		c-0.627,2.413,1.868,12.016,3.873,15.807c1.517,2.725,2.342,5.779,2.401,8.896c11.063,11.225,22.125,0.616,33.188,0v-1.252
		c-0.223-0.772-0.223-1.592,0-2.363C49.142,40.453,52,23.813,51.191,20.197z"/>
</g>
</svg>
